# xmcd
#
# Track frame offsets:
#	150
#	16062
#	31210
#	48490
#	71735
#	87325
#	109395
#	125002
#	140010
#	160015
#	171905
#	189977
#	203040
#	222165
#	233620
#	246060
#	257762
#	269447
#	284957
#	298290
#
# Disc length: 4144
#
# Revision: 1
# Processed by: cddbd v1.5.1PL0 Copyright (c) Steve Scherf et al.
# Submitted via: CDex 1.50
# Normalized: r0:TRMNUM
#
DISCID=36102e14
DTITLE=Os Serranos - as 20 Preferidas
DYEAR=1900
DGENRE=Country
TTITLE0=Tordilho Negro
TTITLE1=Bailanta de Fronteira
TTITLE2=Cambichos
TTITLE3=Namoro de SíTio
TTITLE4=Estampa
TTITLE5=Costumes do Meu Pago
TTITLE6=Marca de Talento
TTITLE7=Meu Retorno
TTITLE8=Forma Cavalo
TTITLE9=Upa Upa
TTITLE10=Abandono
TTITLE11=Bugio DançAdor
TTITLE12=Tem Dó
TTITLE13=Vida de Taura
TTITLE14=Exaltação de Bugio
TTITLE15=Amizade de Gaiteiro
TTITLE16=Vanerão Lascado
TTITLE17=Os Bugios da Minha Gaita
TTITLE18=Bugio do Rio Grande
TTITLE19=Cantiga de Amor E Paz
EXTD=
EXTT0=
EXTT1=
EXTT2=
EXTT3=
EXTT4=
EXTT5=
EXTT6=
EXTT7=
EXTT8=
EXTT9=
EXTT10=
EXTT11=
EXTT12=
EXTT13=
EXTT14=
EXTT15=
EXTT16=
EXTT17=
EXTT18=
EXTT19=
PLAYORDER=
